<svg xmlns="http://www.w3.org/2000/svg" xmlns:xlink="http://www.w3.org/1999/xlink" viewBox="0 0 55.99 49.85"><defs><style>.cls-1,.cls-2,.cls-3,.cls-4,.cls-5,.cls-6{fill-rule:evenodd;}.cls-1{fill:url(#Degradado_sin_nombre);}.cls-2{fill:url(#Degradado_sin_nombre_2);}.cls-3{fill:url(#Degradado_sin_nombre_3);}.cls-4{fill:#520;stroke:#520;stroke-miterlimit:10;stroke-width:0.45px;}.cls-5{fill:url(#Degradado_sin_nombre_4);}.cls-6{fill:url(#Degradado_sin_nombre_5);}</style><linearGradient id="Degradado_sin_nombre" x1="1829.26" y1="-2339.76" x2="1999.75" y2="-2598.44" gradientTransform="matrix(0.15, 0, 0, -0.15, -261.61, -352.62)" gradientUnits="userSpaceOnUse"><stop offset="0" stop-color="#520"/><stop offset="1" stop-color="#d45500"/></linearGradient><linearGradient id="Degradado_sin_nombre_2" x1="1912.43" y1="-2646.05" x2="2000.27" y2="-2452.2" gradientTransform="matrix(0.15, 0, 0, -0.15, -261.61, -352.62)" gradientUnits="userSpaceOnUse"><stop offset="0" stop-color="gray"/><stop offset="1" stop-color="#e6e6e6"/></linearGradient><linearGradient id="Degradado_sin_nombre_3" x1="1782.77" y1="-2356.69" x2="1995.69" y2="-2472.41" gradientTransform="matrix(0.15, 0, 0, -0.15, -261.61, -352.62)" gradientUnits="userSpaceOnUse"><stop offset="0" stop-color="#f95"/><stop offset="1" stop-color="#fca"/></linearGradient><linearGradient id="Degradado_sin_nombre_4" x1="1739.57" y1="-2419.88" x2="1961.05" y2="-2581.22" gradientTransform="matrix(0.15, 0, 0, -0.15, -261.61, -352.62)" gradientUnits="userSpaceOnUse"><stop offset="0" stop-color="#520"/><stop offset="1" stop-color="#a40"/></linearGradient><radialGradient id="Degradado_sin_nombre_5" cx="1854.39" cy="-3175.68" r="75.09" gradientTransform="matrix(0.13, -0.02, -0.02, -0.13, -257.97, -348.8)" gradientUnits="userSpaceOnUse"><stop offset="0" stop-color="#ffd5d5"/><stop offset="1" stop-color="red"/></radialGradient></defs><g id="Capa_2" data-name="Capa 2"><g id="svg2"><g id="layer1"><g id="g3223"><path id="path2383" class="cls-1" d="M5.09,26,14.3.42,50.88,15.91,34.51,47.22c-1.34,2.56-5.25,3.46-6.92,1.75Z"/><path id="path3163" class="cls-2" d="M27.09,46.1C28.43,49,31.22,49,32.22,47.16S46.15,19.05,46.15,19.05L33.09,21.52S24.7,44.1,27.09,46.1Z"/><path id="path3173" class="cls-3" d="M46.15,19.05,14.64,2.73l-9.8.07L32.22,22.12Z"/><path id="path3183" class="cls-4" d="M12.37,2.66,42.15,19.85l.13.07"/><path id="path3185" class="cls-4" d="M9.54,2.77,38.19,20.69l.13.06"/><path id="path3187" class="cls-5" d="M29.36,49.63c-1.67-1-2.07-2.13-1.2-5.46s6.33-23.92,6.33-23.92L5.51,0,.38,21.45c-.5,2.09-.92,3.6,1.6,5.8L25.34,47.57C27.61,49.41,28.1,49.53,29.36,49.63Z"/><path id="path3213" class="cls-6" d="M33.29,36.75l1.36-4.13s4.25-1.48,7.86.39.78,6.45,4.26,6.45,5.93-.71,4.45-4.19-3.29-3.48-3.29-3.48a7,7,0,0,1,3.23-.07A17,17,0,0,0,51,28.36a17.87,17.87,0,0,1,4.55,6.38c1.24,3.6.07,7.67-8,8.09-6,.31-6-2.19-6.43-4.9S33.42,36.88,33.29,36.75Z"/></g></g></g></g></svg>