<svg xmlns="http://www.w3.org/2000/svg" viewBox="0 0 508 508"><defs><style>.cls-1{fill:#ffd05b;}.cls-2{fill:#fff;}.cls-3{fill:#324a5e;}.cls-4{fill:#f9b54c;}.cls-5{fill:#ff7058;}.cls-6{fill:#f1543f;}.cls-7{fill:#e6e9ee;}.cls-8{fill:#ced5e0;}</style></defs><g id="Capa_2" data-name="Capa 2"><g id="Layer_1" data-name="Layer 1"><circle class="cls-1" cx="254" cy="254" r="254"/><path class="cls-2" d="M350.4,480.8v8.4a255.53,255.53,0,0,1-192.4,0v-8a228.41,228.41,0,0,1,2.8-33.6h0l6-4.8,1.6-1.2L251.2,378l2.4-1.6,3.2,2.4L340,442.4l1.2.8,6,4.4v.4A175.4,175.4,0,0,1,350.4,480.8Z"/><path class="cls-3" d="M179.2,197.6c-1.6-2.8-.8-6.4.8-8.8,1.6-2.8,4-4.8,6-7.2,4.8-5.2,8.4-11.6,7.6-18.4-.4-3.6-2.4-6.8-3.6-10.4s-2-7.6,0-10.8a7.17,7.17,0,0,0,2-2.8c5.2-6.8,2-16,1.6-24.4-.8-14,6-27.2,12.4-39.6,4.4-8.4,9.2-17.6,17.2-22.8,4.8-3.2,10.8-4.8,16.4-6,15.2-2.4,31.6.4,44,9.6,9.6,7.2,16.4,17.6,20.8,28.8s6.8,23.2,8.8,34.8c1.2,6.8,2,14.8-2,20.4-1.6,2.4-4,4-5.6,6.4-2,3.2-2.8,6.8-3.6,10.4s-1.2,7.6,0,11.2c2,4.8,6.8,7.2,10.4,10.8,4.4,4.4,6,10.8,7.6,16.8a25.12,25.12,0,0,1,1.2,7.6c-.8,6.4-6.8,10.4-12.8,12.8-20.4,8.8-42.8,10.8-64.8,10.8-6,0-12,0-17.6-2-8.8-2.4-16-8.4-23.2-14.4C199.2,207.6,182,202.4,179.2,197.6Z"/><polygon class="cls-4" points="280.8 170 293.2 180 293.2 220.8 294.8 258.4 256.8 266.8 210.8 252 210.8 208 218.8 177.6 227.2 170 254 167.2 280.8 170"/><path class="cls-2" d="M213.6,252s29.6,10.8,79.6,0L269.6,357.2l-56,8.4Z"/><path class="cls-5" d="M160,212.4s-31.2,87.2,7.2,231.6l17.6-44s-8.8-99.2,6-120l-9.6-57.2Z"/><path class="cls-6" d="M227.2,170s-18,26.4-67.2,42.4c0,0,67.2,85.2,0,234,0,0,27.2,45.2,67.2,51.6,0,0,25.6-123.6,33.6-129.2L226,316.4l-12.4-64,5.6-62.4Z"/><path class="cls-6" d="M348,212.4s31.2,87.2-7.2,231.6l-17.6-44s8.8-99.2-6-120l9.6-57.2Z"/><path class="cls-5" d="M280.8,170s18,26.4,67.2,42.4c0,0-67.2,85.2,0,234,0,0-27.2,45.2-67.2,51.6,0,0-25.6-123.6-33.6-129.2L282,316.4l12.4-64L288.8,190Z"/><path class="cls-4" d="M257.2,174l23.6-4s-10.4-15.2-10.8-38.4H238.4c-.4,23.2-10.8,38.4-10.8,38.4l23.6,4v1.2l3.2-.4,3.2.4V174Z"/><ellipse class="cls-1" cx="252.8" cy="122.8" rx="40.8" ry="57.6"/><path class="cls-3" d="M244.4,59.2s20,53.6,60.4,68.8L290,70,256.8,53.6Z"/><path class="cls-3" d="M255.6,59.6s-29.6,43.6-50.4,53.6l5.6-33.6,19.6-18.4Z"/><path class="cls-2" d="M294.4,194.8c-8,11.2-23.6,19.2-41.6,19.2s-33.6-7.6-41.6-19.2h-1.6c8,12,24.4,20.4,43.2,20.4s34.8-8.4,43.2-20.4Z"/><path class="cls-3" d="M256.8,215.6c0,2-.8,9.6-2.8,9.6s-2.8-7.6-2.8-9.6V214c.4-2,1.2-2.8,2.8-2.8a2.57,2.57,0,0,1,2.8,2.4h-1.2c-.4-1.6-.8-1.6-1.6-1.6s-1.2,0-1.6,1.6v1.6c0,4,1.2,8,1.6,8.4.8-.4,1.6-4.4,1.6-8.4v-.4h1.2Z"/><circle class="cls-7" cx="254" cy="230.4" r="8"/><ellipse class="cls-8" cx="254" cy="227.2" rx="0.8" ry="3.2"/><ellipse class="cls-8" cx="254" cy="233.6" rx="0.8" ry="3.2"/><ellipse class="cls-8" cx="257.6" cy="230.4" rx="3.2" ry="0.8"/><ellipse class="cls-8" cx="250.8" cy="230.4" rx="3.2" ry="0.8"/><ellipse class="cls-8" cx="256.45" cy="227.97" rx="3.2" ry="0.8" transform="translate(-86.08 248.15) rotate(-45.01)"/><ellipse class="cls-8" cx="251.62" cy="232.69" rx="3.2" ry="0.8" transform="translate(-90.84 246.12) rotate(-45.01)"/><ellipse class="cls-8" cx="256.5" cy="232.72" rx="0.8" ry="3.2" transform="translate(-89.43 249.53) rotate(-45)"/><ellipse class="cls-8" cx="251.92" cy="228.04" rx="0.8" ry="3.2" transform="translate(-87.46 244.88) rotate(-44.99)"/><path class="cls-5" d="M227.2,170s-28.4,101.2,33.6,198.8c0,0-58-33.6-70-142.8l19.2-2.8-13.2-8.8C197.2,214.4,196,179.6,227.2,170Z"/><path class="cls-6" d="M280.8,170s28.4,101.2-33.6,198.8c0,0,58-33.6,70-142.8L298,223.2l13.2-8.8C310.8,214.4,312,179.6,280.8,170Z"/></g></g></svg>